<svg xmlns="http://www.w3.org/2000/svg" viewBox="0 0 100 100">
  <rect width="100" height="100" fill="#f4f8f8"/>
  <rect x="5" y="8" width="19" height="84" rx="3" fill="#f7fafa" stroke="#dce5e4"/>
  <rect x="29" y="8" width="40" height="84" fill="#ffffff" stroke="#dce5e4"/>
  <rect x="69" y="8" width="26" height="84" rx="3" fill="#ffffff" stroke="#dce5e4"/>
  <rect x="8" y="14" width="13" height="8" rx="2" fill="#0d766e"/>
  <rect x="8" y="29" width="10" height="2" rx="1" fill="#68716f"/>
  <rect x="8" y="36" width="13" height="6" rx="2" fill="#dceeed"/>
  <rect x="8" y="48" width="9" height="2" rx="1" fill="#8b9492"/>
  <rect x="32" y="13" width="34" height="8" rx="3" fill="#eef4f4"/>
  <g fill="#edf1f0">
    <rect x="29" y="26" width="40" height="1"/>
    <rect x="29" y="38" width="40" height="1"/>
    <rect x="29" y="50" width="40" height="1"/>
    <rect x="29" y="62" width="40" height="1"/>
  </g>
  <rect x="29" y="39" width="40" height="11" fill="#dff0f7"/>
  <g fill="#18201f">
    <rect x="33" y="30" width="9" height="2" rx="1"/>
    <rect x="33" y="42" width="11" height="2" rx="1"/>
    <rect x="33" y="54" width="8" height="2" rx="1"/>
  </g>
  <g fill="#8b9492">
    <rect x="46" y="30" width="17" height="2" rx="1"/>
    <rect x="46" y="42" width="14" height="2" rx="1"/>
    <rect x="46" y="54" width="18" height="2" rx="1"/>
  </g>
  <rect x="73" y="16" width="17" height="3" rx="1" fill="#18201f"/>
  <rect x="73" y="24" width="13" height="2" rx="1" fill="#68716f"/>
  <rect x="73" y="35" width="18" height="2" rx="1" fill="#dce5e4"/>
  <rect x="73" y="41" width="16" height="2" rx="1" fill="#dce5e4"/>
  <rect x="73" y="47" width="18" height="2" rx="1" fill="#dce5e4"/>
  <circle cx="90" cy="86" r="3" fill="#d49b2b"/>
</svg>
